#!OML:ASF E:\Style4\Style4.ASF
:FULLY-SPECIFIED
:DEGREES
780
root 0.0114158 17.1263 -2.35723 3.95714 -0.153779 2.49553
lowerback 17.1234 1.92723 1.2446
upperback 13.213 2.65199 0.976211
thorax 4.61484 1.38398 0.00191089
lowerneck 7.07154 -3.84292 -4.42014
upperneck -12.0405 -5.38504 2.97799
head -4.56358 -2.64721 1.95174
rclavicle 1.27222e-014 -7.15625e-015
rhumerus 45.5704 23.3021 -26.5498
rradius 107.322
rwrist -83.8243
rhand -45.2378 13.2296
rfingers 7.12502
rthumb -18.0125 -15.9563
lclavicle 1.27222e-014 -7.15625e-015
lhumerus 48.3755 -26.2181 26.5442
lradius 115.49
lwrist 88.7921
lhand -34.7107 50.4382
lfingers 7.12502
lthumb -7.86552 80.2719
rfemur -33.0987 -5.75203 17.1088
rtibia 48.9272
rfoot -17.7363 -14.9313
rtoes -14.9274
lfemur -31.9038 1.79371 -20.8388
ltibia 46.511
lfoot -18.2102 9.13194
ltoes -16.3616
781
root 0.0130049 17.1284 -2.35875 3.97258 -0.199325 2.49418
lowerback 17.147 1.92619 1.24758
upperback 13.2061 2.65105 0.964705
thorax 4.59559 1.38398 -0.012891
lowerneck 6.89409 -3.87085 -4.4813
upperneck -11.8468 -5.41872 3.00485
head -4.47068 -2.66443 1.96296
rclavicle 3.89618e-014 7.15625e-015
rhumerus 45.608 23.5596 -26.501
rradius 107.284
rwrist -83.7657
rhand -45.3558 13.4701
rfingers 7.12502
rthumb -18.126 -15.7053
lclavicle 3.89618e-014 7.15625e-015
lhumerus 48.2376 -26.4042 26.5826
lradius 115.556
lwrist 88.7954
lhand -34.9465 50.5319
lfingers 7.12502
lthumb -8.09312 80.3569
rfemur -33.1049 -5.69624 17.1047
rtibia 48.8786
rfoot -17.6745 -15.0053
rtoes -15.4753
lfemur -31.901 1.80512 -20.842
ltibia 46.4773
lfoot -18.2114 9.15825
ltoes -16.2766
782
root 0.0149708 17.1325 -2.36096 3.96923 -0.252379 2.52657
lowerback 17.1767 1.94088 1.21244
upperback 13.2162 2.66573 0.963827
thorax 4.59005 1.38877 0.00314314
lowerneck 6.74448 -3.91776 -4.53014
upperneck -11.6714 -5.47888 3.02346
head -4.3877 -2.69469 1.97202
rclavicle 3.18055e-015 3.18055e-015
rhumerus 45.6422 23.7521 -26.4462
rradius 107.285
rwrist -83.734
rhand -45.2815 13.2907
rfingers 7.12502
rthumb -18.0545 -15.8914
lclavicle 3.18055e-015 3.18055e-015
lhumerus 48.0978 -26.5696 26.6441
lradius 115.633
lwrist 88.7698
lhand -35.1176 50.4435
lfingers 7.12502
lthumb -8.25826 80.2621
rfemur -33.0848 -5.65142 17.0623
rtibia 48.8116
rfoot -17.7521 -14.9231
rtoes -14.519
lfemur -31.8541 1.7971 -20.8803
ltibia 46.4048
lfoot -18.2213 9.17855
ltoes -15.7818
783
root 0.0176744 17.1383 -2.36455 3.99889 -0.311911 2.53059
lowerback 17.142 1.93721 1.16999
upperback 13.2275 2.65416 0.988831
thorax 4.61711 1.37852 0.0563086
lowerneck 6.77532 -3.93746 -4.58332
upperneck -11.6852 -5.51301 3.02597
head -4.39427 -2.70946 1.98409
rclavicle 1.51076e-014 -9.54166e-015
rhumerus 45.7671 23.957 -26.3457
rradius 107.283
rwrist -83.728
rhand -45.1341 13.0846
rfingers 7.12502
rthumb -17.9126 -16.1105
lclavicle 1.51076e-014 -9.54166e-015
lhumerus 47.9014 -26.6734 26.7618
lradius 115.641
lwrist 88.7948
lhand -35.1657 50.3602
lfingers 7.12502
lthumb -8.30465 80.177
rfemur -33.0854 -5.59617 17.049
rtibia 48.7122
rfoot -17.7942 -14.8244
rtoes -13.534
lfemur -31.8451 1.80353 -20.8872
ltibia 46.3163
lfoot -18.2199 9.19899
ltoes -15.5221
784
root 0.0204628 17.1447 -2.36742 4.03165 -0.363204 2.52727
lowerback 17.1564 1.9945 1.31119
upperback 13.2949 2.74573 0.931573
thorax 4.6966 1.43803 -0.0928078
lowerneck 6.51363 -4.07578 -4.4317
upperneck -11.6632 -5.67084 3.0393
head -4.34132 -2.79467 1.96433
rclavicle -2.46493e-014 7.95139e-015
rhumerus 45.6364 23.8701 -26.375
rradius 107.26
rwrist -83.6654
rhand -45.0291 13.1433
rfingers 7.12502
rthumb -17.8116 -16.061
lclavicle -2.46493e-014 7.95139e-015
lhumerus 48.1628 -26.7265 26.6332
lradius 115.657
lwrist 88.9922
lhand -35.2886 50.3694
lfingers 7.12502
lthumb -8.42327 80.1814
rfemur -33.0686 -5.55861 17.0419
rtibia 48.5936
rfoot -17.7368 -14.7809
rtoes -13.3222
lfemur -31.8231 1.81838 -20.8982
ltibia 46.21
lfoot -18.1613 9.2795
ltoes -15.9029
785
root 0.0227559 17.1524 -2.36915 4.08879 -0.405629 2.49399
lowerback 17.2646 2.13584 1.73884
upperback 13.4065 2.98463 0.752983
thorax 4.80516 1.59963 -0.550073
lowerneck 5.7903 -4.37271 -4.0403
upperneck -11.1174 -6.01099 3.03422
head -4.50211 -2.96715 2.08675
rclavicle 2.38542e-015 7.15625e-015
rhumerus 45.1246 23.4146 -26.6394
rradius 107.236
rwrist -83.5881
rhand -45.0725 13.3732
rfingers 7.12502
rthumb -17.8534 -15.8273
lclavicle 2.38542e-015 7.15625e-015
lhumerus 49.0346 -26.7648 26.1459
lradius 115.7
lwrist 89.214
lhand -35.3652 50.5602
lfingers 7.12502
lthumb -8.4972 80.3693
rfemur -33.0563 -5.53542 17.081
rtibia 48.4598
rfoot -17.7302 -14.6529
rtoes -12.4443
lfemur -31.8053 1.82494 -20.8699
ltibia 46.0965
lfoot -18.1495 9.28634
ltoes -15.7682
786
root 0.0236507 17.1624 -2.37201 4.18301 -0.455248 2.47067
lowerback 17.2816 2.2225 1.97077
upperback 13.4571 3.12678 0.643612
thorax 4.87858 1.69458 -0.811199
lowerneck 5.29839 -4.53971 -3.86726
upperneck -11.0082 -6.18378 3.19701
head -4.35542 -3.06934 2.09561
rclavicle 2.38542e-015 -1.03368e-014
rhumerus 44.8209 23.1925 -26.7734
rradius 107.292
rwrist -83.5741
rhand -45.2442 13.4719
rfingers 7.12502
rthumb -18.0186 -15.7135
lclavicle 2.38542e-015 -1.03368e-014
lhumerus 49.506 -26.8435 25.8615
lradius 115.724
lwrist 89.2406
lhand -35.419 50.6221
lfingers 7.12502
lthumb -8.54917 80.429
rfemur -33.0803 -5.43184 17.1099
rtibia 48.3082
rfoot -17.7946 -14.557
rtoes -11.6012
lfemur -31.8475 1.85593 -20.8517
ltibia 45.9724
lfoot -18.0439 9.32815
ltoes -15.8313
787
root 0.0256767 17.1716 -2.37549 4.27307 -0.498895 2.46813
lowerback 17.2479 2.24233 2.01009
upperback 13.4521 3.15701 0.604896
thorax 4.89636 1.71453 -0.876361
lowerneck 5.24473 -4.60322 -3.86109
upperneck -11.0606 -6.25522 3.30974
head -4.3572 -3.11044 2.13554
rclavicle 3.97569e-015 1.90833e-014
rhumerus 44.7912 23.2334 -26.7655
rradius 107.307
rwrist -83.5054
rhand -45.3808 13.5162
rfingers 7.12502
rthumb -18.1501 -15.6569
lclavicle 3.97569e-015 1.90833e-014
lhumerus 49.5275 -26.874 25.7966
lradius 115.798
lwrist 89.2589
lhand -35.6013 50.6849
lfingers 7.12502
lthumb -8.72505 80.4846
rfemur -33.1142 -5.38312 17.1122
rtibia 48.1492
rfoot -17.7025 -14.579
rtoes -12.0896
lfemur -31.8763 1.87886 -20.8698
ltibia 45.8396
lfoot -17.9284 9.4393
ltoes -16.3708
788
root 0.0288353 17.1808 -2.3785 4.3963 -0.50917 2.45613
lowerback 17.1716 2.25689 2.09312
upperback 13.4446 3.18536 0.555372
thorax 4.93686 1.73758 -0.975139
lowerneck 5.22316 -4.68727 -3.72376
upperneck -11.0974 -6.35218 3.33992
head -4.36511 -3.16567 2.12619
rclavicle -2.14687e-014 7.95139e-016
rhumerus 44.8155 23.1898 -26.7933
rradius 107.229
rwrist -83.4996
rhand -45.3963 13.4552
rfingers 7.12502
rthumb -18.165 -15.7166
lclavicle -2.14687e-014 7.95139e-016
lhumerus 49.5774 -26.8693 25.6542
lradius 115.844
lwrist 89.2897
lhand -35.7205 50.7533
lfingers 7.12502
lthumb -8.84008 80.5482
rfemur -33.1659 -5.42206 17.1301
rtibia 47.986
rfoot -17.6042 -14.5625
rtoes -12.2451
lfemur -31.9453 1.91986 -20.893
ltibia 45.6934
lfoot -17.7728 9.51514
ltoes -16.9243
789
root 0.0306729 17.191 -2.38268 4.5384 -0.509912 2.45088
lowerback 17.0973 2.23937 2.10854
upperback 13.3767 3.16412 0.528853
thorax 4.90078 1.72826 -1.00823
lowerneck 5.35751 -4.72098 -3.67519
upperneck -11.1453 -6.39605 3.35557
head -4.40867 -3.19019 2.13229
rclavicle -3.18055e-014 2.38542e-014
rhumerus 44.9238 23.2815 -26.7891
rradius 107.188
rwrist -83.5261
rhand -45.3145 13.3111
rfingers 7.12502
rthumb -18.0862 -15.868
lclavicle -3.18055e-014 2.38542e-014
lhumerus 49.3824 -26.896 25.619
lradius 115.892
lwrist 89.2838
lhand -35.7241 50.7251
lfingers 7.12502
lthumb -8.84362 80.5198
rfemur -33.2477 -5.45483 17.1521
rtibia 47.8327
rfoot -17.4741 -14.5901
rtoes -12.4351
lfemur -32.0394 1.93855 -20.9086
ltibia 45.5354
lfoot -17.6146 9.61186
ltoes -17.4719
790
root 0.0318536 17.1983 -2.3884 4.61804 -0.530769 2.50918
lowerback 17.1311 2.20014 1.99002
upperback 13.2752 3.10079 0.504737
thorax 4.76088 1.68669 -0.965167
lowerneck 5.63668 -4.69877 -3.81246
upperneck -11.2771 -6.3743 3.48613
head -4.50578 -3.17984 2.21669
rclavicle -3.26007e-014 2.06736e-014
rhumerus 45.0551 23.5145 -26.7339
rradius 107.246
rwrist -83.6122
rhand -45.2799 13.4048
rfingers 7.12502
rthumb -18.053 -15.7773
lclavicle -3.26007e-014 2.06736e-014
lhumerus 49.0451 -26.9041 25.6368
lradius 115.995
lwrist 89.3315
lhand -35.7621 50.918
lfingers 7.12502
lthumb -8.88027 80.7111
rfemur -33.2886 -5.45577 17.0919
rtibia 47.7069
rfoot -17.3481 -14.5989
rtoes -12.6577
lfemur -32.049 1.93622 -20.9751
ltibia 45.361
lfoot -17.5236 9.60483
ltoes -17.2682
791
root 0.0336304 17.2039 -2.39294 4.66212 -0.567906 2.53544
lowerback 17.1618 2.16325 1.95272
upperback 13.2323 3.04933 0.472631
thorax 4.69474 1.65857 -0.97487
lowerneck 5.81183 -4.69442 -4.02381
upperneck -11.8126 -6.33695 3.91033
head -4.2248 -3.19078 2.17856
rclavicle 7.95139e-015 -3.18055e-015
rhumerus 45.1992 23.6524 -26.6564
rradius 107.281
rwrist -83.6461
rhand -45.2367 13.5891
rfingers 7.12502
rthumb -18.0114 -15.5969
lclavicle 7.95139e-015 -3.18055e-015
lhumerus 48.8615 -26.8595 25.6156
lradius 116.072
lwrist 89.4189
lhand -35.8512 51.1423
lfingers 7.12502
lthumb -8.96625 80.9318
rfemur -33.3001 -5.44263 17.057
rtibia 47.6073
rfoot -17.2974 -14.5478
rtoes -12.719
lfemur -32.0048 1.93546 -20.9926
ltibia 45.1915
lfoot -17.5545 9.50673
ltoes -16.5257
792
root 0.0355202 17.2087 -2.39626 4.73383 -0.62481 2.58979
lowerback 17.1455 2.17325 1.93169
upperback 13.2245 3.05972 0.434304
thorax 4.69588 1.66393 -1.00448
lowerneck 5.71009 -4.72121 -4.07949
upperneck -11.7523 -6.3647 4.00541
head -4.183 -3.20759 2.21296
rclavicle -1.74931e-014 7.95139e-016
rhumerus 45.2996 23.6315 -26.5705
rradius 107.267
rwrist -83.5792
rhand -45.1326 13.5809
rfingers 7.12502
rthumb -17.9113 -15.6143
lclavicle -1.74931e-014 7.95139e-016
lhumerus 48.8694 -26.7714 25.528
lradius 116.103
lwrist 89.5074
lhand -35.885 51.1186
lfingers 7.12502
lthumb -8.99883 80.9067
rfemur -33.3559 -5.40387 16.9899
rtibia 47.5204
rfoot -17.3611 -14.4304
rtoes -12.1827
lfemur -32.0051 2.00368 -21.06
ltibia 45.0343
lfoot -17.5312 9.44554
ltoes -16.2154
